<svg width="110" height="110" viewBox="0 0 110 110" fill="none" xmlns="http://www.w3.org/2000/svg">
<g id="Group 18">
<circle id="Ellipse 19" cx="55" cy="55" r="55" fill="#DBDBDB"/>
<path id="Vector" d="M64.0901 42.75C64.0901 40.4294 63.1327 38.2038 61.4285 36.5628C59.7243 34.9219 57.413 34 55.0029 34C52.5929 34 50.2815 34.9219 48.5773 36.5628C46.8732 38.2038 45.9158 40.4294 45.9158 42.75C45.9158 45.0706 46.8732 47.2962 48.5773 48.9372C50.2815 50.5781 52.5929 51.5 55.0029 51.5C57.413 51.5 59.7243 50.5781 61.4285 48.9372C63.1327 47.2962 64.0901 45.0706 64.0901 42.75ZM49.4512 57.1465C46.0862 55.998 43.1328 53.8242 41.1024 50.8848L38.3337 46.8789C36.9422 44.8691 34.1309 44.3359 32.0295 45.6758C29.9281 47.0156 29.3743 49.7363 30.7658 51.7461L33.5487 55.7383C36.1187 59.4434 39.6258 62.3555 43.644 64.2695V99.625C43.644 102.045 45.6744 104 48.1876 104C50.7007 104 52.7311 102.045 52.7311 99.625V86.5H57.2747V99.625C57.2747 102.045 59.3051 104 61.8183 104C64.3314 104 66.3619 102.045 66.3619 99.625V64.2969C70.4937 62.3555 74.0859 59.3477 76.6843 55.5195L79.2685 51.7051C80.6315 49.6816 80.0352 46.9746 77.9338 45.6484C75.8324 44.3223 73.021 44.8965 71.6438 46.9336L69.0596 50.7344C65.9643 55.3008 60.6966 58.0625 55.0313 58.0625C53.2423 58.0625 51.4958 57.7891 49.8346 57.2695C49.7068 57.2285 49.579 57.1738 49.4512 57.1465Z" fill="white"/>
<path id="Vector_2" d="M24 33.7143V33.2143H23.5H19C17.7921 33.2143 16.7206 33.0587 15.9679 32.8198C15.5887 32.6994 15.3184 32.5665 15.1536 32.4426C15.0284 32.3485 15.0039 32.292 15 32.2798V29.4286V28.9286H14.5C13.2921 28.9286 12.2206 28.773 11.4679 28.534C11.0887 28.4137 10.8184 28.2808 10.6536 28.1569C10.5426 28.0735 10.5108 28.0197 10.5023 28C10.5108 27.9803 10.5426 27.9265 10.6536 27.8431C10.8184 27.7192 11.0887 27.5863 11.4679 27.466C12.2206 27.227 13.2921 27.0714 14.5 27.0714H15V26.5714V23.7202C15.0039 23.708 15.0284 23.6515 15.1536 23.5574C15.3184 23.4335 15.5887 23.3006 15.9679 23.1802C16.7206 22.9413 17.7921 22.7857 19 22.7857H23.5H24V22.2857V19.4344C24.0039 19.4222 24.0284 19.3658 24.1536 19.2717C24.3184 19.1478 24.5887 19.0149 24.9679 18.8945C25.7206 18.6556 26.7921 18.5 28 18.5H32.5C33.7079 18.5 34.7794 18.6556 35.5321 18.8945C35.9113 19.0149 36.1816 19.1478 36.3464 19.2717C36.4716 19.3658 36.4961 19.4223 36.5 19.4344V26.5714V29.4286V36.5656C36.4961 36.5777 36.4716 36.6342 36.3464 36.7283C36.1816 36.8522 35.9113 36.9851 35.5321 37.1055C34.7794 37.3444 33.7079 37.5 32.5 37.5H28C26.7921 37.5 25.7206 37.3444 24.9679 37.1055C24.5887 36.9851 24.3184 36.8522 24.1536 36.7283C24.0284 36.6342 24.0039 36.5778 24 36.5656V33.7143ZM14.9993 32.2773C14.9993 32.2773 14.9994 32.2776 14.9995 32.2781L14.9993 32.2773ZM10.4993 27.9916C10.4993 27.9916 10.4994 27.9919 10.4995 27.9924L10.4993 27.9916ZM10.4995 28.0075C10.4994 28.0081 10.4993 28.0084 10.4993 28.0084L10.4995 28.0075ZM14.9993 23.7227C14.9993 23.7227 14.9994 23.7224 14.9995 23.7218L14.9993 23.7227ZM23.9993 19.437C23.9993 19.4369 23.9994 19.4367 23.9995 19.4361L23.9993 19.437ZM36.5007 19.437C36.5007 19.437 36.5006 19.4366 36.5005 19.436L36.5007 19.437ZM36.5007 36.563C36.5007 36.5631 36.5006 36.5633 36.5005 36.5639L36.5007 36.563ZM23.9995 36.564C23.9994 36.5634 23.9993 36.563 23.9993 36.563L23.9995 36.564ZM86 22.2857V22.7857H86.5H91C92.2079 22.7857 93.2794 22.9413 94.0321 23.1802C94.4113 23.3006 94.6816 23.4335 94.8464 23.5574C94.9716 23.6515 94.9961 23.7079 95 23.7202V26.5714V27.0714H95.5C96.7079 27.0714 97.7794 27.227 98.5321 27.466C98.9113 27.5863 99.1816 27.7192 99.3464 27.8431C99.4574 27.9265 99.4892 27.9803 99.4977 28C99.4892 28.0197 99.4574 28.0735 99.3464 28.1569C99.1816 28.2808 98.9113 28.4137 98.5321 28.534C97.7794 28.773 96.7079 28.9286 95.5 28.9286H95V29.4286V32.2798C94.9961 32.2921 94.9716 32.3485 94.8464 32.4426C94.6816 32.5665 94.4113 32.6994 94.0321 32.8198C93.2794 33.0587 92.2079 33.2143 91 33.2143H86.5H86V33.7143V36.5656C85.9961 36.5778 85.9716 36.6342 85.8464 36.7283C85.6816 36.8522 85.4113 36.9851 85.0321 37.1055C84.2794 37.3444 83.2079 37.5 82 37.5H77.5C76.2921 37.5 75.2206 37.3444 74.4679 37.1055C74.0887 36.9851 73.8184 36.8522 73.6536 36.7283C73.5284 36.6342 73.5039 36.5777 73.5 36.5656V29.4286V26.5714V19.4344C73.5039 19.4223 73.5284 19.3658 73.6536 19.2717C73.8184 19.1478 74.0887 19.0149 74.4679 18.8945C75.2206 18.6556 76.2921 18.5 77.5 18.5H82C83.2079 18.5 84.2794 18.6556 85.0321 18.8945C85.4113 19.0149 85.6816 19.1478 85.8464 19.2717C85.9716 19.3658 85.9961 19.4222 86 19.4344V22.2857ZM68 28.9286H42V27.0714H68V28.9286Z" fill="white" stroke="#D9D9D9"/>
</g>
</svg>
