<svg width="24" height="24" viewBox="0 0 24 24" fill="none" xmlns="http://www.w3.org/2000/svg">
<path d="M20.9999 12.2082C20.9999 11.6028 20.9463 11.0281 20.8543 10.4688H12.1953V13.9247H17.1532C16.9309 15.0588 16.2796 16.0166 15.3141 16.668V18.9668H18.2719C20.0037 17.3653 20.9999 15.0051 20.9999 12.2082Z" fill="#4285F4"/>
<path d="M12.1952 21.1945C14.6779 21.1945 16.7546 20.3669 18.2718 18.9646L15.3139 16.6658C14.4864 17.2175 13.4366 17.5547 12.1952 17.5547C9.79671 17.5547 7.76606 15.9378 7.03809 13.7539H3.98828V16.1217C5.49786 19.1256 8.60131 21.1945 12.1952 21.1945Z" fill="#34A853"/>
<path d="M7.03831 13.7563C6.84674 13.2046 6.74712 12.6145 6.74712 12.0015C6.74712 11.3885 6.8544 10.7984 7.03831 10.2467V7.87891H3.9885C3.36015 9.12028 3 10.5149 3 12.0015C3 13.4881 3.36015 14.8827 3.9885 16.1241L7.03831 13.7563Z" fill="#FBBC05"/>
<path d="M12.1952 6.44453C13.5515 6.44453 14.7622 6.91197 15.7201 7.82384L18.3408 5.20315C16.7546 3.71657 14.6779 2.80469 12.1952 2.80469C8.60131 2.80469 5.49786 4.87365 3.98828 7.87748L7.03809 10.2453C7.76606 8.06139 9.79671 6.44453 12.1952 6.44453Z" fill="#EA4335"/>
</svg>
