<svg width="20" height="20" viewBox="0 0 20 20" fill="none" xmlns="http://www.w3.org/2000/svg">
<path d="M16.9202 4.01249C16.5204 3.60481 16.0456 3.28141 15.5231 3.06077C15.0006 2.84013 14.4406 2.72656 13.875 2.72656C13.3094 2.72656 12.7494 2.84013 12.2268 3.06077C11.7043 3.28141 11.2296 3.60481 10.8298 4.01249L9.99997 4.85816L9.17017 4.01249C8.36252 3.1894 7.26713 2.72699 6.12495 2.72699C4.98277 2.72699 3.88737 3.1894 3.07973 4.01249C2.27209 4.83558 1.81836 5.95193 1.81836 7.11595C1.81836 8.27998 2.27209 9.39633 3.07973 10.2194L3.90953 11.0651L9.99997 17.272L16.0904 11.0651L16.9202 10.2194C17.3202 9.81193 17.6376 9.32812 17.8541 8.79562C18.0706 8.26311 18.182 7.69236 18.182 7.11595C18.182 6.53955 18.0706 5.96879 17.8541 5.43629C17.6376 4.90378 17.3202 4.41997 16.9202 4.01249Z" fill="#E85B6C" stroke="#E85B6C" stroke-width="1.5" stroke-linecap="round" stroke-linejoin="round"/>
</svg>
