<svg width="50" height="50" viewBox="0 0 50 50" fill="none" xmlns="http://www.w3.org/2000/svg">
<path d="M48.7402 0.620508C49.5313 1.20645 50 2.14395 50 3.13027V10.1615V35.9428C50 40.2592 45.8008 43.7553 40.625 43.7553C35.4492 43.7553 31.25 40.2592 31.25 35.9428C31.25 31.6264 35.4492 28.1303 40.625 28.1303C41.7188 28.1303 42.7734 28.2865 43.75 28.5795V14.3607L18.75 21.8607V42.1928C18.75 46.5092 14.5508 50.0053 9.375 50.0053C4.19922 50.0053 0 46.5092 0 42.1928C0 37.8764 4.19922 34.3803 9.375 34.3803C10.4688 34.3803 11.5234 34.5365 12.5 34.8295V19.5365V12.5053C12.5 11.1283 13.4082 9.90762 14.7266 9.50723L45.9766 0.132227C46.9238 -0.150976 47.9492 0.0248051 48.7402 0.620508Z" fill="black"/>
</svg>
