<svg width="50" height="50" viewBox="0 0 50 50" fill="none" xmlns="http://www.w3.org/2000/svg">
<circle cx="25" cy="25" r="25" fill="#004AAD"/>
<path d="M33.1667 14.5H16.8333C15.5447 14.5 14.5 15.5447 14.5 16.8333V33.1667C14.5 34.4553 15.5447 35.5 16.8333 35.5H33.1667C34.4553 35.5 35.5 34.4553 35.5 33.1667V16.8333C35.5 15.5447 34.4553 14.5 33.1667 14.5Z" stroke="white" stroke-width="1.5" stroke-linecap="round" stroke-linejoin="round"/>
<path d="M20.9165 22.668C21.883 22.668 22.6665 21.8845 22.6665 20.918C22.6665 19.9515 21.883 19.168 20.9165 19.168C19.95 19.168 19.1665 19.9515 19.1665 20.918C19.1665 21.8845 19.95 22.668 20.9165 22.668Z" stroke="white" stroke-width="1.5" stroke-linecap="round" stroke-linejoin="round"/>
<path d="M35.5002 28.5013L29.6668 22.668L16.8335 35.5013" stroke="white" stroke-width="1.5" stroke-linecap="round" stroke-linejoin="round"/>
</svg>
